<svg xmlns="http://www.w3.org/2000/svg" width="188" height="35.157" viewBox="0 0 188 35.157">
  <path id="Caminho_1" data-name="Caminho 1" d="M12.222,8.437c-2.607,0-4.469-1.006-5.326-2.979L21.719,2.589C21.682-3.816,17.027-7.54,11.366-7.54,5.184-7.54.64-3.22.64,2.776c0,5.959,4.506,10.316,11.433,10.316,3.613,0,6.406-1.117,8.268-3.24L17.25,6.5A6.792,6.792,0,0,1,12.222,8.437ZM11.366-3.146A4.644,4.644,0,0,1,16.1.28L6.338,2.18C6.45-1.209,8.461-3.146,11.366-3.146Zm28.788-4.1V-5.12a7.7,7.7,0,0,0-6-2.421C28.5-7.54,24.14-3.518,24.14,2.776S28.5,13.092,34.158,13.092a7.707,7.707,0,0,0,6.257-2.607v2.309h5.549V-7.243ZM35.164,8.325c-2.9,0-5.139-2.086-5.139-5.549s2.235-5.549,5.139-5.549c2.868,0,5.1,2.086,5.1,5.549S38.031,8.325,35.164,8.325Zm22.9,4.767c6,0,9.46-2.644,9.46-6.368,0-7.9-12.1-4.581-12.1-8.007,0-1.043,1.117-1.862,3.724-1.862a11.506,11.506,0,0,1,5.773,1.49L66.857-5.79a16.476,16.476,0,0,0-7.709-1.75c-5.847,0-9.273,2.681-9.273,6.48,0,8.007,12.1,4.655,12.1,7.933,0,1.117-1.006,1.825-3.687,1.825a13.708,13.708,0,0,1-6.964-1.937L49.39,10.932A17.2,17.2,0,0,0,58.068,13.092ZM85.478-7.243V1.435c0,3.687-1.937,5.4-4.618,5.4-2.57,0-4.059-1.49-4.059-4.879v-9.2h-5.81V2.813c0,6.219,3.538,9.013,8.566,9.013a8.207,8.207,0,0,0,5.922-2.309v.67c0,3.613-1.676,5.437-5.586,5.437a11.127,11.127,0,0,1-6.778-2.235L70.8,17.561c2.309,1.825,5.884,2.756,9.571,2.756,7,0,10.912-3.426,10.912-10.875V-7.243Zm17.951,20.334c6,0,9.46-2.644,9.46-6.368,0-7.9-12.1-4.581-12.1-8.007,0-1.043,1.117-1.862,3.724-1.862a11.506,11.506,0,0,1,5.773,1.49l1.937-4.134a16.476,16.476,0,0,0-7.709-1.75c-5.847,0-9.273,2.681-9.273,6.48,0,8.007,12.1,4.655,12.1,7.933,0,1.117-1.006,1.825-3.687,1.825a13.708,13.708,0,0,1-6.964-1.937l-1.937,4.171A17.2,17.2,0,0,0,103.429,13.092ZM128.642-7.54a8.807,8.807,0,0,0-6.368,2.384V-14.84h-5.81V12.794h5.81V2.887c0-3.687,2.011-5.4,4.8-5.4,2.57,0,4.059,1.49,4.059,4.73V12.794h5.81V1.323C136.947-4.785,133.372-7.54,128.642-7.54Zm23.314,20.632c6.368,0,10.986-4.283,10.986-10.316S158.325-7.54,151.956-7.54,140.932-3.258,140.932,2.776,145.588,13.092,151.956,13.092Zm0-4.767c-2.9,0-5.139-2.086-5.139-5.549s2.235-5.549,5.139-5.549,5.1,2.086,5.1,5.549S154.861,8.325,151.956,8.325Zm26.7-15.865a7.785,7.785,0,0,0-6.294,2.607V-7.243h-5.549V20.019h5.81V10.671a7.779,7.779,0,0,0,6.033,2.421c5.624,0,9.981-4.022,9.981-10.316S184.283-7.54,178.659-7.54ZM177.653,8.325c-2.9,0-5.1-2.086-5.1-5.549s2.2-5.549,5.1-5.549,5.1,2.086,5.1,5.549S180.558,8.325,177.653,8.325Z" transform="translate(-0.64 14.84)" fill="#fff"/>
</svg>
